<svg xmlns="http://www.w3.org/2000/svg" viewBox="0 0 2421.09 1255.19"><defs><style>.cls-1{fill:#b9dbd5;}.cls-2{fill:#a1bfba;}.cls-3{fill:#f1ece2;}.cls-4{fill:#f3f2eb;}.cls-5{fill:#d5d1c9;}.cls-6{fill:#9fbdb7;}.cls-12,.cls-7{fill:none;stroke-linecap:round;stroke-linejoin:round;stroke-width:6px;}.cls-7{stroke:#789a80;}.cls-8{fill:#b2cebc;}.cls-9{fill:#a18b81;}.cls-10{fill:#636367;}.cls-11{fill:#eee9df;}.cls-12{stroke:#827475;}.cls-13{fill:#ed9474;}</style></defs><title>Asset 5</title><g id="Layer_2" data-name="Layer 2"><g id="Layer_1-2" data-name="Layer 1"><rect class="cls-1" width="2421.09" height="1255.19"/><circle class="cls-2" cx="1207.25" cy="640.83" r="416.79"/><circle class="cls-3" cx="1186.08" cy="609.07" r="416.79"/><path class="cls-4" d="M1480.8,321.49a410.51,410.51,0,0,0-287.54-117c-227.49,0-411.9,184.41-411.9,411.9a410,410,0,0,0,61,215.84s0,0,0,0q5.54,10.54,11.67,20.72a410.17,410.17,0,0,1-79.71-243.59c0-227.49,184.41-411.9,411.9-411.9A410.61,410.61,0,0,1,1480.8,321.49Z"/><circle class="cls-5" cx="1181.97" cy="610.41" r="303.05"/><circle class="cls-3" cx="1197.36" cy="633.5" r="303.05"/><path class="cls-4" d="M933.72,774a298.49,298.49,0,0,0,241,122.12c165.08,0,298.91-133.83,298.91-298.91a297.62,297.62,0,0,0-42.66-154,297.64,297.64,0,0,1,57.85,176.78c0,165.09-133.83,298.92-298.92,298.92C1081.2,918.85,986,860.78,933.72,774Z"/><path class="cls-6" d="M1421.16,668.16v0S1323,727.91,1280.4,770.61c-35.5,35.58-68.3,88.61-81.74,103.6a8.32,8.32,0,0,1-9.83,1.94s-15.09-16.44-34.75-16.79c-3.72-.07-5.22-5.26-4.59-8.92,3.4-19.84,24.58-78.49,30.41-128.41,6.74-57.72-6.88-164.16-7.15-173.42a7.79,7.79,0,0,0-.09-1c-2.31-14.81,2.36-29.43,13.61-38a34.76,34.76,0,0,1,27.32-6.27,8.4,8.4,0,0,0,9.9-8.64c0-.09,0-.18,0-.27-1.15-29.5,18.31-54.69,43.47-56.27,11.64-.74,22.46,3.72,30.84,11.63A8.33,8.33,0,0,0,1309,450a62.82,62.82,0,0,1,104.26,50.4,8.33,8.33,0,0,0,7.12,8.71c11.41,1.65,21.62,7.36,28.29,17,14.39,20.7,6.75,51.6-17.08,69l-.2.15a8.41,8.41,0,0,0-.64,13.15,34.73,34.73,0,0,1,12.06,25.29C1443.15,648,1434.42,660.82,1421.16,668.16Z"/><path class="cls-7" d="M1421.16,668.16v0S1323,727.91,1280.4,770.61c-35.5,35.58-68.3,88.61-81.74,103.6-2.48,2.77-7.42,4.77-9.83,1.94-5.51-6.42-17.45-14.67-34.75-16.79-3.69-.46-5.22-5.26-4.59-8.92,3.4-19.84,24.58-78.49,30.41-128.41,6.74-57.72-6.88-164.16-7.15-173.42a7.79,7.79,0,0,0-.09-1c-2.31-14.81,2.36-29.43,13.61-38a34.76,34.76,0,0,1,27.32-6.27,8.4,8.4,0,0,0,9.9-8.64c0-.09,0-.18,0-.27-1.15-29.5,18.31-54.69,43.47-56.27,11.64-.74,22.46,3.72,30.84,11.63A8.33,8.33,0,0,0,1309,450a62.82,62.82,0,0,1,104.26,50.4,8.33,8.33,0,0,0,7.12,8.71c11.41,1.65,21.62,7.36,28.29,17,14.39,20.7,6.75,51.6-17.08,69l-.2.15a8.41,8.41,0,0,0-.64,13.15,34.73,34.73,0,0,1,12.06,25.29C1443.15,648,1434.42,660.82,1421.16,668.16Z"/><path class="cls-8" d="M1192,551.76h0s-14.86,114-8.23,173.89c5.54,50,26.36,108.73,29.64,128.6a8.31,8.31,0,0,1-4.64,8.88s-22.26,1.48-34.85,16.59c-2.38,2.86-7.36.78-9.82-2-13.35-15.08-45.84-68.3-81.12-104.09-40.8-41.39-132.33-97.39-139.72-103-.26-.19-.52-.36-.8-.53-13-7.46-21.48-20.26-21.09-34.37a34.73,34.73,0,0,1,12.21-25.23,8.4,8.4,0,0,0-.54-13.13l-.22-.16c-23.72-17.57-31.19-48.51-16.67-69.12,6.71-9.54,17-15.19,28.37-16.78a8.33,8.33,0,0,0,7.18-8.66,62.82,62.82,0,0,1,104.55-49.77,8.34,8.34,0,0,0,11.26-.1c8.43-7.86,19.27-12.25,30.92-11.45,25.15,1.73,44.47,27,43.14,56.52a2.09,2.09,0,0,1,0,.25,8.4,8.4,0,0,0,9.86,8.72,34.81,34.81,0,0,1,27.27,6.43C1190,522,1194.57,536.82,1192,551.76Z"/><path class="cls-7" d="M1192,551.76h0s-14.86,114-8.23,173.89c5.54,50,26.36,108.73,29.64,128.6.61,3.66-.93,8.77-4.64,8.88-8.46.27-22.36,4.42-34.85,16.59-2.66,2.6-7.36.78-9.82-2-13.35-15.08-45.84-68.3-81.12-104.09-40.8-41.39-132.33-97.39-139.72-103-.26-.19-.52-.36-.8-.53-13-7.46-21.48-20.26-21.09-34.37a34.73,34.73,0,0,1,12.21-25.23,8.4,8.4,0,0,0-.54-13.13l-.22-.16c-23.72-17.57-31.19-48.51-16.67-69.12,6.71-9.54,17-15.19,28.37-16.78a8.33,8.33,0,0,0,7.18-8.66,62.82,62.82,0,0,1,104.55-49.77,8.34,8.34,0,0,0,11.26-.1c8.43-7.86,19.27-12.25,30.92-11.45,25.15,1.73,44.47,27,43.14,56.52a2.09,2.09,0,0,1,0,.25,8.4,8.4,0,0,0,9.86,8.72,34.81,34.81,0,0,1,27.27,6.43C1190,522,1194.57,536.82,1192,551.76Z"/><polyline class="cls-7" points="1189.79 868.15 1042.28 558.22 987.47 443.08"/><path class="cls-7" d="M1108.57,697.5s31.55-75.11,29.23-116.07"/><path class="cls-7" d="M1066.59,609.31s15-61.21,2.7-97.86"/><path class="cls-7" d="M1133.89,750.7s-90.7-47-134.28-88"/><path class="cls-7" d="M1079.59,636.61s-46-35.63-80.14-71.32"/><path class="cls-7" d="M1057,705.8s-3.08-35.5-24.47-58.8"/><path class="cls-7" d="M1133.55,620s-23.76-7.89-21.8-45.8"/><path class="cls-7" d="M1076.71,541.83s36.8-13.22,29-47.7"/><path class="cls-7" d="M1011.31,577.25s-37.76,19.4-64.15-17.57"/><path class="cls-9" d="M1117.75,654.91c.5,16.52-3.84,29.29-11.69,33l-.43.18c-8.29,3.51-20.63-2.22-32.32-14.29,11.74-34.67-8.07-79.55-10.1-85.22.07,0,.09,0,.16-.06s.15-.06.21-.1v0C1066.21,593.81,1084.7,639.21,1117.75,654.91Z"/><path class="cls-10" d="M1068.09,531a15.52,15.52,0,0,1,1.1,8.31,13.51,13.51,0,0,1-16.7-18.52C1059.35,521.39,1065.36,524.56,1068.09,531Z"/><path class="cls-9" d="M1078.43,557.46a26,26,0,0,0-11.06-12.41,17.58,17.58,0,0,0,1.82-5.76,13.51,13.51,0,0,1-16.7-18.52,34.87,34.87,0,0,0-16.65,2.74A37.39,37.39,0,0,0,1028,528a30.68,30.68,0,0,0-5.76,5.55,13.35,13.35,0,0,1,8.12,7.52,13.53,13.53,0,0,1-6.4,17.38,18.28,18.28,0,0,0,5.39,2.69,26.28,26.28,0,0,0-.3,11.55,28.16,28.16,0,0,0,1.54,5,21,21,0,0,0,13.88,12.54c5.73,1.63,12.32,1,18.74-1.67.07,0,.09-.05.16-.07s.15-.06.21-.1c6.39-2.73,11.39-7,14.2-12.25a20.59,20.59,0,0,0,2.46-11.66A24.08,24.08,0,0,0,1078.43,557.46Z"/><path class="cls-10" d="M1030.36,541.09a13.53,13.53,0,0,1-6.4,17.38,15.52,15.52,0,0,1-5.17-6.59c-2.74-6.45-.85-13,3.45-18.31A13.35,13.35,0,0,1,1030.36,541.09Z"/><path class="cls-11" d="M1185.54,611.53c-28.1-11.15-72.91-28.87-76.73-30-9.2-2.76-15.74-1.2-19.43.46l0,0a21.21,21.21,0,0,0-11.58-5.87c-2.81,5.21-7.81,9.52-14.2,12.25v0c2.63,5.38,21.12,50.78,54.17,66.48a111.13,111.13,0,0,0-9-39.22c-2.85-6.73-5.55-12.66-8.19-17.74,1,.38,2,.71,3.1,1,3.81,1.13,51,10.74,80.66,16.75a2.05,2.05,0,0,0,2.47-1.43A2.17,2.17,0,0,0,1185.54,611.53Z"/><path class="cls-11" d="M1044.47,590.24a21.14,21.14,0,0,0-3.83,12.42c-3.78,1.5-9.41,5.1-13.85,13.63-1.85,3.52-20.25,48-31.76,76a2.18,2.18,0,0,0,3.85,2c16.31-25.46,42.21-66.07,44.06-69.59.53-1,1-2,1.41-3h0c1.78,5.44,4.21,11.49,7.07,18.25a112,112,0,0,0,21.85,33.83c11.74-34.67-8.07-79.55-10.1-85.21C1056.79,591.26,1050.2,591.87,1044.47,590.24Z"/><ellipse class="cls-12" cx="1043.42" cy="541.44" rx="26.77" ry="19.47" transform="translate(-128.56 450.11) rotate(-22.97)"/><path class="cls-12" d="M1067.38,545a25.74,25.74,0,0,1,11,12.41c5.6,13.2-1.84,25.45-15,31s-27.17,2.42-32.77-10.79a25.86,25.86,0,0,1-1.24-16.56"/><path class="cls-12" d="M1069.21,539.29a13.52,13.52,0,0,1-16.7-18.57"/><path class="cls-12" d="M1024,558.47a13.52,13.52,0,0,0-1.73-24.91"/><path class="cls-12" d="M1044.64,521c-7.07-33.57,6.65-55.24,28-48.45"/><path class="cls-12" d="M1028,528.05c-19.21-28.42-44.33-33.63-54.32-13.54"/><path class="cls-12" d="M1077.75,576.17c13,1.86,20.85,15.59,31,39.51,14.11,33.28,10.7,66.55-3.09,72.4-14.1,6-40.07-14.84-54.18-48.12-10.12-23.89-14.67-39.05-7-49.7"/><path class="cls-12" d="M1063.21,588.57c2,5.65,21.83,50.54,10.1,85.21"/><path class="cls-12" d="M1063.57,588.42c2.65,5.38,21.14,50.83,54.21,66.52"/><path class="cls-12" d="M1105.2,688.26s3.7,16.06-5.44,26.39"/><path class="cls-12" d="M1106.05,687.9s9,13.82,22.75,14.45"/><line class="cls-12" x1="1105.64" y1="688.08" x2="1118.59" y2="718.65"/><path class="cls-12" d="M1075.73,552.94c28.51-9,26.77-34.32,14.61-41.77"/><path class="cls-12" d="M1080.07,564.47s17,3.24,30.86-17.42c13-19.48,30.57-19.07,30.57-19.07"/><path class="cls-12" d="M1100.55,597.94c1,.37,2,.72,3.1,1,3.8,1.13,51,10.74,80.65,16.73a2.18,2.18,0,0,0,1.24-4.17c-28.11-11.16-72.9-28.89-76.71-30-9.23-2.74-15.75-1.19-19.46.45"/><path class="cls-12" d="M1186.78,614.23c10.48,25.52-34.31,56.76-24.55,92.75"/><path class="cls-12" d="M1161,693.74s-6,1.72-6.47,9.73"/><path class="cls-12" d="M1029.05,572.71c-26.27,14.26-43.34-4.59-40.24-18.5"/><path class="cls-12" d="M1034.32,583.8s-9.58,14.58-34,10.15c-23.07-4.17-35,8.71-35,8.71"/><path class="cls-12" d="M1044.37,621.71c-.41.95-.9,2-1.43,3-1.83,3.52-27.75,44.12-44.06,69.59a2.18,2.18,0,0,1-3.86-2c11.53-28,29.94-72.47,31.77-76,4.45-8.54,10.07-12.13,13.83-13.65"/><path class="cls-12" d="M996.08,695.05c11.06,25.28,64.65,14.82,83.72,46.87"/><path class="cls-12" d="M1071.18,731.79s5.44-3.15,11.49,2.12"/><polyline class="cls-7" points="1200.93 806.76 1322.42 555.44 1377.91 440.63"/><path class="cls-7" d="M1255.28,694.32s78.33-22.4,108.82-49.86"/><path class="cls-7" d="M1297.79,606.39s57.12-26.63,78-59.16"/><path class="cls-7" d="M1229.65,747.36s-20.14-100.13-15.39-159.83"/><path class="cls-7" d="M1284.63,633.6s-1-58.16,5.46-107.13"/><path class="cls-7" d="M1216.51,659.28s25.77-24.63,30.55-55.89"/><path class="cls-7" d="M1331.4,665.26s-8.72-23.46,22.08-45.67"/><path class="cls-7" d="M1356.75,572s33.35,20.43,55.34-7.25"/><path class="cls-7" d="M1288.2,543.2s-38.77-17.31-26.46-61"/><path class="cls-9" d="M1405.66,466.32c-2.1,3.47-6.58,10.53-7,11.23l1.23.71a17.18,17.18,0,0,1,5.63,5.07,17.18,17.18,0,0,0-5.63-5.07l-1.23-.71-9.16-5.2c.36-.56,4.75-8.14,6.84-11.67-10.35-1.95-16.21,7.26-16.67,8.07,0,0,0,0-.05,0l-6.77,10.8a8.47,8.47,0,0,0,2.86,11.61l12.63,7.62a8.49,8.49,0,0,0,11.62-2.87l6.34-11s0-.08.13-.22h0a0,0,0,0,1,0,0C1407.3,483.09,1411.88,474.17,1405.66,466.32Z"/><path class="cls-11" d="M1406.4,484.7c-.09.14-.13.22-.13.22l-6.34,11a8.49,8.49,0,0,1-11.62,2.87l-12.63-7.62a8.47,8.47,0,0,1-2.86-11.61l6.77-10.8c-17.1-1.39-31,22.41-31,22.41a20.51,20.51,0,0,0-.69,18.89,42.89,42.89,0,0,0-12.47,10.08h0c-.58.66-1.14,1.32-1.67,2a19.62,19.62,0,0,0,9.14,22.52l17.48,9.93c7.2,4.09,16.35,2.73,22.45-2.19.32-1,.67-2,1-3,1.56-5,3-11.23,2.54-17.12a20.51,20.51,0,0,0,16.37-10.34S1414.37,498.5,1406.4,484.7Z"/><path class="cls-9" d="M1377.68,562a19.76,19.76,0,0,1-13.19,6.41,19.52,19.52,0,0,1-11-2.51L1336,555.94a19.66,19.66,0,0,1-9.47-13s0,0,0-.05a19.7,19.7,0,0,1,2.12-13.69,66,66,0,0,1,5.09-7.15,19.63,19.63,0,0,0,9.14,22.52l17.48,9.93c7.2,4.09,16.35,2.73,22.45-2.19a62.83,62.83,0,0,1-2.6,6.17A18.76,18.76,0,0,1,1377.68,562Z"/><path class="cls-11" d="M1364.49,568.37v0c-.39,8.61-5,17.61-7.93,22.49l0,0a19.88,19.88,0,0,1-22.33-2l-15.65-13a19.94,19.94,0,0,1-5.21-23.91l0,0a50.29,50.29,0,0,1,13.07-8.95h.08a19.66,19.66,0,0,0,9.47,13l17.49,9.92A19.52,19.52,0,0,0,1364.49,568.37Z"/><path class="cls-9" d="M1356.53,590.86l0,0c-1.41,2.31-2.41,3.73-2.41,3.73a19.62,19.62,0,0,1-18.86,7,19.3,19.3,0,0,1-8.69-4L1311,585a19.61,19.61,0,0,1-7.26-13.81,19.39,19.39,0,0,1,4.27-13.72,58,58,0,0,1,5.38-5.52,19.94,19.94,0,0,0,5.21,23.91l15.65,13A19.88,19.88,0,0,0,1356.53,590.86Z"/><path class="cls-13" d="M1326.51,542.91s0,0,0,.05h-.08S1326.49,542.94,1326.51,542.91Z"/><path class="cls-11" d="M1326.6,597.61a19.3,19.3,0,0,0,8.69,4c-1.3,8.46-7.18,16.84-11.08,21.57a19.76,19.76,0,0,1-21.94-4.29L1288,604.39a20.11,20.11,0,0,1-2.62-24.66c4.26-3,11.14-7.12,18.34-8.54A19.61,19.61,0,0,0,1311,585Z"/><path class="cls-9" d="M1324.21,623.14c-2,2.5-3.53,4-3.53,4a19.61,19.61,0,0,1-20.09,3.72,19.09,19.09,0,0,1-7.57-5.15l-13.45-14.93A19.65,19.65,0,0,1,1281,583.1s1.66-1.44,4.37-3.37a20.11,20.11,0,0,0,2.62,24.66l14.3,14.46A19.76,19.76,0,0,0,1324.21,623.14Z"/><path class="cls-11" d="M1293,625.69a19.09,19.09,0,0,0,7.57,5.15c-2,7.93-7.83,15.44-11.79,19.84h0a20.22,20.22,0,0,1-22-5.24l-13.6-15.15a19.83,19.83,0,0,1-1.51-24.59l0,0c5.08-3.25,14-8,22.86-8a19.47,19.47,0,0,0,5,13.09Z"/><path class="cls-9" d="M1266.78,645.44a20.22,20.22,0,0,0,22,5.24c-2.24,2.5-3.87,4-3.87,4a19.64,19.64,0,0,1-18.38,3.42,19.34,19.34,0,0,1-9.2-6.24l-12.67-15.61a19.69,19.69,0,0,1,2.83-27.55,48.86,48.86,0,0,1,4.18-3,19.83,19.83,0,0,0,1.51,24.59Z"/><path class="cls-11" d="M1266.53,658.07a61.68,61.68,0,0,1-8.3,15.37,20,20,0,0,1-22.24-3.31l-14.92-13.91a20,20,0,0,1-3.74-24.37c5.23-4.19,14.2-10.15,23.09-10.32h0a19.41,19.41,0,0,0,4.21,14.69l12.67,15.61A19.34,19.34,0,0,0,1266.53,658.07Z"/><path class="cls-9" d="M1239.72,682.92a19.48,19.48,0,0,1-11.93-5.39l-14.49-13.94a19.58,19.58,0,0,1-.56-27.69,57,57,0,0,1,4.59-4,20,20,0,0,0,3.74,24.37L1236,670.13a20,20,0,0,0,22.24,3.31c-1.59,2.21-2.75,3.53-2.75,3.53A19.7,19.7,0,0,1,1239.72,682.92Z"/><path class="cls-11" d="M1239.72,682.92a59.52,59.52,0,0,1-7.3,17.5A20,20,0,0,1,1210,699l-16-12.61a20,20,0,0,1-5.83-23.86c4.33-4.13,11.46-9.88,19.2-11.76a19.58,19.58,0,0,0,6,12.85l14.49,13.94A19.48,19.48,0,0,0,1239.72,682.92Z"/><path class="cls-9" d="M1232.42,700.42c-1.38,2.32-2.38,3.71-2.38,3.71a19.67,19.67,0,0,1-27.53,3l-15.67-12.59a19.74,19.74,0,0,1-3-27.55s1.62-1.93,4.31-4.51a20,20,0,0,0,5.83,23.86L1210,699A20,20,0,0,0,1232.42,700.42Z"/><path class="cls-11" d="M1215.21,711.42a62.74,62.74,0,0,1-3.49,17.35,19.89,19.89,0,0,1-22.14,2.71l-18.15-9.36a20,20,0,0,1-10.19-22.36c4-5.63,10.7-13.31,18.88-15.71h0a19.3,19.3,0,0,0,6.69,10.52l15.67,12.59A19.46,19.46,0,0,0,1215.21,711.42Z"/><path class="cls-9" d="M1158,725a19.57,19.57,0,0,1-.73-18.89,60.77,60.77,0,0,1,4-6.35,20,20,0,0,0,10.19,22.36l18.15,9.36a19.89,19.89,0,0,0,22.14-2.71c-.85,2.5-1.53,4-1.53,4a19.63,19.63,0,0,1-26.32,8.66l-17.94-9.05A19.28,19.28,0,0,1,1158,725Z"/><path class="cls-11" d="M1200.38,742c1.35,7.28.45,15.17-.36,19.86a20,20,0,0,1-21.37,6.85l-19.55-5.82a20,20,0,0,1-14.17-20.28c2.42-5.21,6.77-12.94,13-17.6a19.28,19.28,0,0,0,8,7.42l17.94,9.05A19.65,19.65,0,0,0,1200.38,742Z"/><path class="cls-9" d="M1145.74,765.93a19.62,19.62,0,0,1-3.09-17.77,58.79,58.79,0,0,1,2.28-5.56,20,20,0,0,0,14.17,20.28l19.55,5.82a20,20,0,0,0,21.37-6.85c-.44,2.59-.86,4.21-.86,4.21a19.29,19.29,0,0,1-7.22,9.92,19.52,19.52,0,0,1-17.36,2.85l-19.16-6.09A19.55,19.55,0,0,1,1145.74,765.93Z"/><path class="cls-11" d="M1192,776a62.11,62.11,0,0,1,2.46,17.32A20,20,0,0,1,1174.61,804l-20.25-2.24a19.85,19.85,0,0,1-17.53-17.19c1.38-5.2,4.1-12.94,8.91-18.6a19.55,19.55,0,0,0,9.68,6.81l19.16,6.09a19.52,19.52,0,0,0,17.36-2.85Z"/><path class="cls-9" d="M1194.43,793.32c0,3.06-.15,5-.15,5a19.17,19.17,0,0,1-5.26,10.8v0a19.61,19.61,0,0,1-16.86,5.91l-19.89-2.78a19.68,19.68,0,0,1-16.71-22.09s.36-2.3,1.27-5.67a19.85,19.85,0,0,0,17.53,17.19l20.25,2.24A20,20,0,0,0,1194.43,793.32Z"/><path class="cls-11" d="M1189,809.16a17,17,0,0,1,1.56,7.62,56.72,56.72,0,0,1-3,15.06,20.48,20.48,0,0,1-13.23,4.25l-21-.79a20.18,20.18,0,0,1-12.52-4.88,0,0,0,0,1,0,0,62.16,62.16,0,0,1-2.58-15.16,17.39,17.39,0,0,1,2.73-8.81,19.33,19.33,0,0,0,11.41,5.86l19.89,2.78A19.61,19.61,0,0,0,1189,809.16Z"/><path class="cls-9" d="M1174.31,836.09a20.48,20.48,0,0,0,13.23-4.25c-2.77,7.7-8.07,15.41-18.08,15.11l-12-.35c-9.42-.28-14.25-8.3-16.7-16.18a20.18,20.18,0,0,0,12.52,4.88Z"/><path class="cls-12" d="M1374.65,529.59l-18.35-10.42a20.64,20.64,0,0,1-7.73-28s18.45-31.52,38.9-19.91l12.39,7c19.2,10.9,2.83,43.61,2.83,43.61A20.62,20.62,0,0,1,1374.65,529.59Z"/><path class="cls-12" d="M1386.32,532.2c.86,12.34-6.13,26.3-6.13,26.3a19.65,19.65,0,0,1-26.71,7.36L1336,555.94a19.65,19.65,0,0,1-7.36-26.71s8-13.71,19.23-19.19"/><path class="cls-12" d="M1382.8,552.3c-6.09,5-15.26,6.32-22.47,2.23l-17.48-9.93a19.67,19.67,0,0,1-9.11-22.59"/><path class="cls-12" d="M1356.54,590.87a19.91,19.91,0,0,1-22.34-2l-15.66-13a19.91,19.91,0,0,1-5.09-24.13"/><path class="cls-12" d="M1324.22,623.13a19.82,19.82,0,0,1-22-4.26L1288,604.39a20.11,20.11,0,0,1-2.61-24.66"/><path class="cls-12" d="M1288.79,650.67a20.25,20.25,0,0,1-22-5.23l-13.6-15.14a19.88,19.88,0,0,1-1.49-24.62"/><path class="cls-12" d="M1258.24,673.45a20,20,0,0,1-22.24-3.33l-14.92-13.91a20,20,0,0,1-3.69-24.44"/><path class="cls-12" d="M1364.49,568.33c-.55,12.72-10.33,26.28-10.33,26.28a19.65,19.65,0,0,1-27.55,3L1310.94,585a19.65,19.65,0,0,1-3-27.54s8.22-10,18.59-14.57"/><path class="cls-12" d="M1335.3,601.58c-2,12.91-14.61,25.53-14.61,25.53a19.65,19.65,0,0,1-27.67-1.42l-13.46-14.93a19.65,19.65,0,0,1,1.42-27.67s10.94-9.6,22.73-11.89"/><path class="cls-12" d="M1300.58,630.84c-3.09,12.42-15.68,23.81-15.68,23.81a19.65,19.65,0,0,1-27.56-2.84l-12.68-15.59a19.65,19.65,0,0,1,2.83-27.56c.21-.17,13.7-11,27-11"/><path class="cls-12" d="M1266.54,658.07c-3.51,10.21-11,18.89-11,18.89a19.64,19.64,0,0,1-27.7.56l-14.5-13.92a19.64,19.64,0,0,1-.56-27.7s13.92-14.11,27.69-14.37"/><path class="cls-12" d="M1239.72,682.87c-2.29,11-9.67,21.27-9.67,21.27a19.67,19.67,0,0,1-27.55,3l-15.67-12.59a19.65,19.65,0,0,1-3-27.54s11-13.27,23.52-16.28"/><path class="cls-12" d="M1232.42,700.41A19.94,19.94,0,0,1,1210,699l-16-12.6a20,20,0,0,1-5.73-24"/><path class="cls-12" d="M1211.88,728.67a20,20,0,0,1-22.31,2.8l-18.13-9.34a20,20,0,0,1-10.16-22.54"/><path class="cls-12" d="M1200,761.82a20,20,0,0,1-21.4,6.88l-19.55-5.83a20,20,0,0,1-14.16-20.27"/><path class="cls-12" d="M1194.44,793.33A20,20,0,0,1,1174.62,804l-20.27-2.23a20,20,0,0,1-17.58-17.39"/><path class="cls-12" d="M1187.53,831.85a20.55,20.55,0,0,1-13.23,4.24l-21-.78a20.27,20.27,0,0,1-12.55-4.92"/><path class="cls-12" d="M1215.21,711.42c-.36,10.79-5,21.38-5,21.38a19.64,19.64,0,0,1-26.31,8.67l-18-9.05a19.64,19.64,0,0,1-8.67-26.31s9.44-18.14,22.87-22.06"/><path class="cls-12" d="M1200.35,741.89c2.16,11.33-1.18,24.17-1.18,24.17a19.65,19.65,0,0,1-24.59,12.76l-19.17-6.07a19.65,19.65,0,0,1-12.75-24.6s5.17-15.61,15.34-23.17"/><path class="cls-12" d="M1192,776c3.33,10.45,2.31,22.34,2.31,22.34a19.65,19.65,0,0,1-22.1,16.72l-19.91-2.77a19.65,19.65,0,0,1-16.71-22.1s2.28-15,10.2-24.28"/><path class="cls-12" d="M1189,809.13a17.17,17.17,0,0,1,1.54,7.64s-1.3,30.77-21.11,30.19l-12-.35c-18.6-.55-19.32-31.37-19.32-31.37a17.29,17.29,0,0,1,2.72-8.8"/><path class="cls-12" d="M1406.42,484.68l-6.5,11.22a8.47,8.47,0,0,1-11.61,2.86l-12.63-7.63a8.49,8.49,0,0,1-2.87-11.61l6.8-10.81"/><path class="cls-12" d="M1383.63,549.24s15.2,7.25,27.33-5.63"/><path class="cls-12" d="M1377.63,561.9s12.34,11.46,27.76,2.79"/><path class="cls-12" d="M1364.41,568.21s6.53,15.53,24.15,14"/><path class="cls-12" d="M1335.45,520.14s-13.49-10.08-7.74-26.81"/><path class="cls-12" d="M1327.48,531.54s-15.88-5.6-15.38-23.28"/><path class="cls-12" d="M1326.58,542.94s-16.78,1.45-23.61-14.87"/><path class="cls-12" d="M1379.58,468.81s5.9-10.17,16.74-8.12c-2.2,3.64-6.83,11.7-6.83,11.7"/><path class="cls-12" d="M1406.26,484.92s6.24-9.95-.61-18.59c-2.2,3.64-7,11.26-7,11.26"/><path class="cls-2" d="M1772.69,346.7v157c0,24.28-13.14,44.47-30.46,48.66l4.65,388.39c.19,16.23-9.63,29.52-21.82,29.52s-22-13.29-21.81-29.52l4.66-388.38c-17.36-4.16-30.53-24.36-30.53-48.67v-157l15.58-.06h0V503h10.8V346.61c5,0,10.34,0,15.82,0h0V503h10.79V346.52h15.82V503H1757V346.51C1766.31,346.52,1772.62,346.6,1772.69,346.7Z"/><path class="cls-3" d="M1748.85,332.55a5.88,5.88,0,0,1,5.84,5.89v151.3c0,22.45-11.23,41.4-26.61,47.44a5.93,5.93,0,0,0-3.8,5.58l4.6,384c.19,16.23-9.63,29.52-21.82,29.52s-22-13.29-21.81-29.52l4.6-384.11a5.82,5.82,0,0,0-3.77-5.47c-15.43-6-26.7-25-26.7-47.47V338.56a5.89,5.89,0,0,1,5.86-5.89h1.8a5.9,5.9,0,0,1,5.92,5.9V483.08a5.9,5.9,0,0,0,5.9,5.89h3a5.89,5.89,0,0,0,5.89-5.89V338.47a5.89,5.89,0,0,1,5.88-5.89h2.73a5.2,5.2,0,0,1,5.21,5.2V483.08a5.89,5.89,0,0,0,5.89,5.89h0a5.9,5.9,0,0,0,5.9-5.89V338.41a5.9,5.9,0,0,1,5.89-5.9h2a5.9,5.9,0,0,1,5.89,5.9V483.08a5.9,5.9,0,0,0,5.9,5.89h2a5.89,5.89,0,0,0,5.89-5.89V338.42a5.9,5.9,0,0,1,5.93-5.89Z"/><path class="cls-2" d="M645,637.09l-4.71,308.52c-.2,16.61,9.86,30.2,22.31,30.2s22.52-13.59,22.33-30.2l-4.71-308.52Z"/><path class="cls-2" d="M645,638.62V338.44s56-10.4,56,88.36S716.75,638.62,677,638.62Z"/><path class="cls-3" d="M628.07,623.28,623.36,931.8c-.2,16.61,9.86,30.2,22.31,30.2s22.52-13.59,22.33-30.2l-4.71-308.52Z"/><path class="cls-3" d="M628.07,624.81V331.68a7.23,7.23,0,0,1,7.78-7.23c15.39,1.29,48.22,12.91,48.22,88.54,0,98.76,15.8,211.82-23.94,211.82Z"/></g></g></svg>